<svg width="49" height="48" viewBox="0 0 49 48" fill="none" xmlns="http://www.w3.org/2000/svg">
<g clip-path="url(#clip0_9_437)">
<path d="M9.5 7.24688C9.5 6.5625 10.0531 6 10.7469 6C11.075 6 11.3937 6.13125 11.6281 6.36563L13.025 7.7625C12.6875 8.60625 12.5 9.53437 12.5 10.5C12.5 12.3656 13.175 14.0625 14.3 15.375C13.8031 16.2375 13.925 17.3531 14.6562 18.0938C15.5375 18.975 16.9625 18.975 17.8344 18.0938L27.5938 8.34375C28.475 7.4625 28.475 6.0375 27.5938 5.16562C26.8531 4.425 25.7375 4.3125 24.875 4.80937C23.5625 3.675 21.8656 3 20 3C19.0344 3 18.1063 3.1875 17.2625 3.51562L15.8656 2.11875C14.5062 0.759375 12.6594 0 10.7469 0C6.74375 0 3.5 3.24375 3.5 7.24688V24C1.84062 24 0.5 25.3406 0.5 27C0.5 28.6594 1.84062 30 3.5 30H45.5C47.1594 30 48.5 28.6594 48.5 27C48.5 25.3406 47.1594 24 45.5 24H9.5V7.24688ZM3.5 33V34.5C3.5 37.1625 4.6625 39.5625 6.5 41.2125V45C6.5 46.6594 7.84062 48 9.5 48C11.1594 48 12.5 46.6594 12.5 45V43.5H36.5V45C36.5 46.6594 37.8406 48 39.5 48C41.1594 48 42.5 46.6594 42.5 45V41.2125C44.3375 39.5625 45.5 37.1719 45.5 34.5V33H3.5Z" fill="#1E1E1E"/>
</g>
<defs>
<clipPath id="clip0_9_437">
<rect width="48" height="48" fill="white" transform="translate(0.5)"/>
</clipPath>
</defs>
</svg>
