<svg width="48" height="48" viewBox="0 0 48 48" fill="none" xmlns="http://www.w3.org/2000/svg">
<path fill-rule="evenodd" clip-rule="evenodd" d="M21.0043 2.80546C21.9154 2.28046 22.9484 2.00409 24 2.00409C25.0516 2.00409 26.0847 2.28048 26.9958 2.80553L27 2.80794L41 10.8079C41.74 11.2352 42.3781 11.8143 42.8738 12.5047C42.9946 12.6254 43.1017 12.7637 43.1912 12.9185C43.2683 13.0519 43.3284 13.1904 43.372 13.3316C43.7833 14.1585 43.9991 15.0709 44 15.9979V32.002C43.9989 33.0542 43.7212 34.0876 43.1946 34.9986C42.6681 35.9095 41.9112 36.666 41 37.192L40.9923 37.1965L27 45.192L26.9964 45.1941C26.362 45.5598 25.6683 45.8049 24.9505 45.9201C24.6678 46.0731 24.344 46.16 24 46.16C23.656 46.16 23.3322 46.0731 23.0495 45.9201C22.3317 45.805 21.6381 45.5598 21.0037 45.1942L21 45.192L7.00772 37.1965L7 37.192C6.08879 36.666 5.33194 35.9095 4.80538 34.9986C4.27883 34.0876 4.00108 33.0542 4 32.002V15.9979C4.00095 15.071 4.21665 14.1586 4.62804 13.3316C4.67163 13.1904 4.73165 13.0519 4.80878 12.9185C4.89833 12.7637 5.00545 12.6254 5.12616 12.5047C5.62187 11.8143 6.26004 11.2352 7 10.8079L7.00771 10.8035L21.0043 2.80546ZM26 25.1736V41.1565L39 33.7279L39.0032 33.7261C39.3055 33.5508 39.5566 33.2994 39.7315 32.9968C39.9071 32.6931 39.9996 32.3487 40 31.9979V17.0751L26 25.1736ZM37.922 13.6561L25 6.27206C24.6959 6.09652 24.3511 6.00409 24 6.00409C23.6489 6.00409 23.304 6.0965 23 6.27204L22.9923 6.27649L10.078 13.6561L24 21.7095L37.922 13.6561Z" fill="#1E1E1E"/>
</svg>
