<svg width="38" height="48" viewBox="0 0 38 48" fill="none" xmlns="http://www.w3.org/2000/svg">
<g clip-path="url(#clip0_9_422)">
<path d="M5.47926 0C2.99107 0 0.972351 2.01562 0.972351 4.5V43.5C0.972351 45.9844 2.99107 48 5.47926 48H14.4931V40.5C14.4931 38.0156 16.5118 36 19 36C21.4882 36 23.5069 38.0156 23.5069 40.5V48H32.5207C35.0089 48 37.0276 45.9844 37.0276 43.5V4.5C37.0276 2.01562 35.0089 0 32.5207 0H5.47926ZM6.98157 22.5C6.98157 21.675 7.6576 21 8.48387 21H11.4885C12.3147 21 12.9908 21.675 12.9908 22.5V25.5C12.9908 26.325 12.3147 27 11.4885 27H8.48387C7.6576 27 6.98157 26.325 6.98157 25.5V22.5ZM17.4977 21H20.5023C21.3286 21 22.0046 21.675 22.0046 22.5V25.5C22.0046 26.325 21.3286 27 20.5023 27H17.4977C16.6714 27 15.9954 26.325 15.9954 25.5V22.5C15.9954 21.675 16.6714 21 17.4977 21ZM25.0092 22.5C25.0092 21.675 25.6853 21 26.5115 21H29.5161C30.3424 21 31.0184 21.675 31.0184 22.5V25.5C31.0184 26.325 30.3424 27 29.5161 27H26.5115C25.6853 27 25.0092 26.325 25.0092 25.5V22.5ZM8.48387 9H11.4885C12.3147 9 12.9908 9.675 12.9908 10.5V13.5C12.9908 14.325 12.3147 15 11.4885 15H8.48387C7.6576 15 6.98157 14.325 6.98157 13.5V10.5C6.98157 9.675 7.6576 9 8.48387 9ZM15.9954 10.5C15.9954 9.675 16.6714 9 17.4977 9H20.5023C21.3286 9 22.0046 9.675 22.0046 10.5V13.5C22.0046 14.325 21.3286 15 20.5023 15H17.4977C16.6714 15 15.9954 14.325 15.9954 13.5V10.5ZM26.5115 9H29.5161C30.3424 9 31.0184 9.675 31.0184 10.5V13.5C31.0184 14.325 30.3424 15 29.5161 15H26.5115C25.6853 15 25.0092 14.325 25.0092 13.5V10.5C25.0092 9.675 25.6853 9 26.5115 9Z" fill="#1E1E1E"/>
</g>
<defs>
<clipPath id="clip0_9_422">
<rect width="36.0553" height="48" fill="white" transform="translate(0.972351)"/>
</clipPath>
</defs>
</svg>
