<svg width="49" height="48" viewBox="0 0 49 48" fill="none" xmlns="http://www.w3.org/2000/svg">
<g clip-path="url(#clip0_9_435)">
<path d="M7.86875 0.468778C6.97813 -0.224972 5.7125 -0.140597 4.90625 0.656278L1.15625 4.40628C0.359377 5.20315 0.275002 6.46878 0.959377 7.36878L8.45938 17.1188C8.88125 17.6719 9.54688 18 10.2406 18H15.3125L25.5313 28.2188C24.1531 30.9375 24.5938 34.35 26.8719 36.6188L37.3719 47.1188C38.5438 48.2907 40.4469 48.2907 41.6188 47.1188L47.6188 41.1188C48.7906 39.9469 48.7906 38.0438 47.6188 36.8719L37.1188 26.3719C34.85 24.1032 31.4375 23.6532 28.7188 25.0313L18.5 14.8125V9.75003C18.5 9.0469 18.1719 8.39065 17.6188 7.96878L7.86875 0.468778ZM2.36563 37.1344C1.175 38.325 0.500002 39.9469 0.500002 41.6344C0.500002 45.15 3.35 48 6.86563 48C8.55313 48 10.175 47.325 11.3656 46.1344L22.4094 35.0907C21.6781 33.1313 21.5656 31.0032 22.0719 28.9875L16.2875 23.2032L2.36563 37.1344ZM48.5 13.5C48.5 12.5157 48.3969 11.5594 48.2 10.6407C47.975 9.59065 46.6906 9.31878 45.9313 10.0782L39.9406 16.0688C39.6594 16.35 39.275 16.5094 38.8813 16.5094H33.5C32.675 16.5094 32 15.8344 32 15.0094V9.61878C32 9.22503 32.1594 8.84065 32.4406 8.5594L38.4313 2.56878C39.1906 1.8094 38.9188 0.525028 37.8688 0.300028C36.9406 0.103153 35.9844 2.8349e-05 35 2.8349e-05C27.5469 2.8349e-05 21.5 6.0469 21.5 13.5V13.575L29.4969 21.5719C32.8719 20.7188 36.6031 21.6188 39.2469 24.2625L40.7188 25.7344C45.3125 23.5782 48.5 18.9094 48.5 13.5ZM5.75 40.5C5.75 39.9033 5.98705 39.331 6.40901 38.909C6.83097 38.4871 7.40326 38.25 8 38.25C8.59674 38.25 9.16903 38.4871 9.59099 38.909C10.0129 39.331 10.25 39.9033 10.25 40.5C10.25 41.0968 10.0129 41.6691 9.59099 42.091C9.16903 42.513 8.59674 42.75 8 42.75C7.40326 42.75 6.83097 42.513 6.40901 42.091C5.98705 41.6691 5.75 41.0968 5.75 40.5Z" fill="#1E1E1E"/>
</g>
<defs>
<clipPath id="clip0_9_435">
<rect width="48" height="48" fill="white" transform="translate(0.5)"/>
</clipPath>
</defs>
</svg>
