<svg width="40" height="40" viewBox="0 0 40 40" fill="none" xmlns="http://www.w3.org/2000/svg">
<path d="M24.1667 16.6667C22.7833 16.6667 21.6667 15.55 21.6667 14.1667V5.83334C21.6667 4.45001 22.7833 3.33334 24.1667 3.33334C25.55 3.33334 26.6667 4.45001 26.6667 5.83334V14.1667C26.6667 15.55 25.55 16.6667 24.1667 16.6667Z" stroke="#1E1E1E" stroke-width="3.5" stroke-linecap="round" stroke-linejoin="round"/>
<path d="M34.1667 16.6667H31.6667V14.1667C31.6667 12.7833 32.7833 11.6667 34.1667 11.6667C35.55 11.6667 36.6667 12.7833 36.6667 14.1667C36.6667 15.55 35.55 16.6667 34.1667 16.6667Z" stroke="#1E1E1E" stroke-width="3.5" stroke-linecap="round" stroke-linejoin="round"/>
<path d="M15.8333 23.3333C17.2167 23.3333 18.3333 24.45 18.3333 25.8333V34.1667C18.3333 35.55 17.2167 36.6667 15.8333 36.6667C14.45 36.6667 13.3333 35.55 13.3333 34.1667V25.8333C13.3333 24.45 14.45 23.3333 15.8333 23.3333Z" stroke="#1E1E1E" stroke-width="3.5" stroke-linecap="round" stroke-linejoin="round"/>
<path d="M5.83333 23.3333H8.33333V25.8333C8.33333 27.2167 7.21667 28.3333 5.83333 28.3333C4.45 28.3333 3.33333 27.2167 3.33333 25.8333C3.33333 24.45 4.45 23.3333 5.83333 23.3333Z" stroke="#1E1E1E" stroke-width="3.5" stroke-linecap="round" stroke-linejoin="round"/>
<path d="M23.3333 24.1667C23.3333 22.7833 24.45 21.6667 25.8333 21.6667H34.1667C35.55 21.6667 36.6667 22.7833 36.6667 24.1667C36.6667 25.55 35.55 26.6667 34.1667 26.6667H25.8333C24.45 26.6667 23.3333 25.55 23.3333 24.1667Z" stroke="#1E1E1E" stroke-width="3.5" stroke-linecap="round" stroke-linejoin="round"/>
<path d="M25.8333 31.6667H23.3333V34.1667C23.3333 35.55 24.45 36.6667 25.8333 36.6667C27.2167 36.6667 28.3333 35.55 28.3333 34.1667C28.3333 32.7833 27.2167 31.6667 25.8333 31.6667Z" stroke="#1E1E1E" stroke-width="3.5" stroke-linecap="round" stroke-linejoin="round"/>
<path d="M16.6667 15.8333C16.6667 14.45 15.55 13.3333 14.1667 13.3333H5.83333C4.45 13.3333 3.33333 14.45 3.33333 15.8333C3.33333 17.2167 4.45 18.3333 5.83333 18.3333H14.1667C15.55 18.3333 16.6667 17.2167 16.6667 15.8333Z" stroke="#1E1E1E" stroke-width="3.5" stroke-linecap="round" stroke-linejoin="round"/>
<path d="M14.1667 8.33334H16.6667V5.83334C16.6667 4.45001 15.55 3.33334 14.1667 3.33334C12.7833 3.33334 11.6667 4.45001 11.6667 5.83334C11.6667 7.21668 12.7833 8.33334 14.1667 8.33334Z" stroke="#1E1E1E" stroke-width="3.5" stroke-linecap="round" stroke-linejoin="round"/>
</svg>
